P2
# Created by IrfanView
100 100
255
55 56 57 58 60 60 61 63 63 64 65 66 67 68 69 70 70 
71 72 73 73 74 75 75 76 76 77 77 77 78 78 79 79 
79 80 80 80 80 80 80 80 80 80 80 80 80 80 80 80 
79 79 79 79 78 78 77 77 76 76 75 75 74 74 73 73 
72 71 71 70 70 69 68 68 67 66 65 65 64 63 62 61 
61 59 58 58 57 56 55 54 54 53 52 51 50 48 48 48 
47 43 39 56 58 59 60 61 62 63 64 65 66 67 68 69 70 70 71 72 
73 74 74 75 75 77 77 77 77 78 79 79 79 80 80 81 
81 81 81 81 81 82 82 82 82 82 82 82 82 81 82 81 
81 81 80 80 80 79 79 78 78 77 77 76 76 75 75 74 
74 73 72 72 71 70 69 69 68 68 67 66 65 64 64 63 
62 61 60 59 59 58 57 56 55 54 53 52 51 50 50 48 
48 45 42 58 59 60 61 63 64 65 66 67 67 68 69 70 71 72 73 74 
74 75 76 77 77 77 78 79 79 80 81 81 82 82 82 82 
82 83 83 83 83 84 84 84 84 84 84 83 83 83 83 83 
83 82 82 82 81 81 81 80 80 79 79 78 78 77 77 76 
76 75 74 74 73 71 71 70 70 69 68 68 67 66 66 64 
63 63 62 61 60 59 59 58 57 56 54 54 53 51 51 50 
49 47 44 60 61 62 63 64 66 67 68 69 69 70 71 72 73 74 75 75 
77 78 78 78 79 80 80 81 82 82 83 83 83 84 84 84 
85 84 85 85 85 85 85 85 85 85 85 85 85 84 84 85 
84 84 83 83 83 83 82 82 82 81 80 80 79 79 78 77 
77 76 76 75 74 74 73 72 72 70 70 69 69 67 67 66 
65 64 64 63 62 60 60 59 58 57 57 55 54 53 52 51 
51 49 46 62 63 64 65 67 68 69 70 71 72 72 73 74 75 76 77 78 
68 73 79 80 81 82 83 83 83 84 85 85 85 86 86 86 
86 87 87 87 87 87 87 87 87 87 87 87 87 87 87 87 
86 86 86 85 85 85 84 84 84 83 82 82 81 81 80 80 
79 78 78 77 76 76 75 74 74 73 72 71 71 70 69 68 
67 66 65 64 63 62 62 61 59 59 58 57 56 55 54 53 
52 51 49 64 65 66 68 68 69 70 71 72 73 75 75 76 77 78 77 75 
40 55 81 82 83 84 85 85 85 86 87 87 87 87 88 88 
88 89 89 89 89 89 89 89 89 89 89 89 89 89 89 88 
88 88 87 87 87 87 86 86 85 85 84 84 83 82 82 81 
80 80 80 79 78 77 77 76 76 75 74 73 72 72 71 70 
69 68 67 66 65 64 64 63 61 61 60 59 58 57 56 55 
54 53 50 66 67 68 70 71 72 73 73 75 76 77 77 78 79 76 52 62 
44 51 77 83 85 86 86 87 88 89 89 89 89 90 90 91 
91 91 91 91 91 92 92 92 92 92 91 91 91 91 91 91 
90 90 90 89 89 89 88 88 87 86 86 86 85 85 84 84 
83 83 81 81 80 79 79 78 78 77 76 75 75 74 73 72 
71 70 69 68 68 66 66 65 64 63 62 61 60 59 58 57 
56 55 53 68 70 71 72 73 74 75 76 77 78 78 79 80 81 79 43 57 
59 59 63 85 87 88 88 89 90 91 91 91 92 92 92 93 
93 93 93 93 94 94 94 94 94 94 93 93 93 93 93 93 
92 92 92 91 91 90 90 90 89 89 88 88 87 87 86 86 
85 84 84 83 82 81 81 80 79 79 78 77 77 75 75 74 
73 72 71 70 69 68 68 67 66 65 64 63 62 61 60 59 
58 56 55 70 72 73 74 75 76 77 78 79 80 80 82 82 84 76 55 76 
59 50 58 87 81 83 89 91 93 93 93 93 94 94 94 95 
95 96 96 96 96 96 96 96 96 96 96 96 96 95 95 95 
95 94 94 94 93 93 92 92 92 91 91 90 90 89 88 88 
87 87 86 86 85 83 83 83 82 81 80 79 79 78 77 76 
75 75 74 73 72 70 69 69 68 67 66 65 64 63 62 61 
60 59 58 73 74 75 77 78 79 80 80 81 83 83 84 85 86 64 53 75 
61 58 65 83 53 61 86 92 94 95 96 96 97 97 98 98 
98 98 98 98 99 98 98 99 98 98 98 98 98 97 97 97 
97 96 96 96 95 95 94 94 94 93 93 92 92 91 91 90 
89 89 89 88 87 86 86 85 84 83 83 82 81 80 79 78 
78 77 76 75 74 73 72 71 70 69 69 67 67 66 64 63 
62 61 60 76 77 78 79 80 81 82 83 84 85 86 86 87 82 59 53 59 
65 62 74 65 52 63 91 95 97 98 99 99 99 100 100 100 
100 101 101 102 101 101 101 101 101 101 101 101 100 100 100 99 
99 98 98 98 98 97 97 97 97 96 96 95 95 94 93 93 
93 92 91 91 90 89 89 87 86 86 85 85 84 83 82 81 
81 79 79 78 77 76 75 74 73 72 71 70 69 68 67 66 
64 63 62 78 79 80 82 83 84 85 86 87 87 88 89 89 55 44 52 61 
58 68 58 52 57 63 76 98 100 101 102 102 102 103 103 103 
104 104 104 104 104 104 104 103 103 103 103 103 102 102 102 102 
101 101 101 100 100 99 99 99 99 98 98 97 97 97 96 95 
95 94 94 93 92 92 91 90 90 89 88 87 86 85 84 84 
83 82 81 80 79 78 77 76 75 74 73 72 71 70 69 68 
67 66 65 81 82 83 84 86 87 87 89 89 90 91 83 90 51 49 59 56 
59 82 63 48 46 53 73 81 82 105 105 105 105 106 106 106 
106 106 107 107 107 107 105 106 106 106 106 105 105 105 105 104 
104 104 103 103 103 102 102 101 101 101 101 100 100 99 99 98 
98 97 96 96 95 94 94 93 92 91 90 90 89 88 87 87 
85 84 84 83 81 81 80 79 78 77 76 75 74 73 72 71 
70 68 67 83 85 86 87 89 90 91 91 92 91 77 58 71 49 45 61 74 
58 70 65 60 53 58 75 79 73 108 108 108 108 108 108 108 
109 109 109 108 108 108 108 108 107 107 107 107 107 107 106 106 
106 106 106 106 105 105 105 104 104 103 103 102 102 101 101 101 
100 99 99 98 98 98 97 96 95 94 94 93 92 90 89 89 
89 87 87 86 85 84 83 82 81 80 79 78 76 76 75 73 
72 71 70 87 88 89 90 92 93 94 94 95 81 44 60 57 40 65 66 75 
77 74 77 58 60 76 77 78 83 91 112 111 110 111 111 111 
111 112 112 112 112 112 112 112 111 111 111 111 111 110 110 109 
109 108 109 109 109 108 107 107 107 106 106 105 105 104 104 104 
104 103 102 101 101 100 100 99 98 97 96 96 95 94 93 92 
91 91 90 89 88 87 86 85 84 83 82 81 79 79 77 76 
75 74 72 89 91 92 93 95 96 96 96 95 58 50 60 44 58 59 73 75 
72 58 79 61 65 74 66 62 71 91 116 114 114 115 115 115 
115 115 115 115 115 115 114 114 114 114 113 113 113 114 114 113 
113 112 111 111 111 110 109 109 109 109 109 108 108 107 107 107 
106 106 105 104 104 103 103 102 101 100 100 99 98 97 96 95 
95 93 93 92 91 90 89 88 87 86 85 84 82 81 80 79 
78 76 75 93 93 95 97 98 99 99 86 54 68 58 63 46 73 54 52 69 
71 46 56 61 71 88 71 72 70 105 121 118 118 119 119 119 
119 119 118 118 118 118 118 118 117 117 117 118 118 118 116 116 
115 115 114 114 113 113 113 112 112 111 111 110 111 111 110 110 
110 109 109 108 107 106 106 106 105 104 103 102 102 100 100 99 
98 97 96 95 94 94 92 91 90 89 88 87 86 85 83 82 
81 79 78 95 97 98 100 101 102 100 57 55 59 61 81 63 66 65 49 59 
56 48 67 60 62 89 90 64 81 94 122 121 121 121 121 121 
121 121 121 121 121 121 122 123 124 123 123 121 120 119 119 119 
118 118 118 118 117 117 116 115 115 114 114 113 113 113 113 113 
113 112 112 111 111 110 109 109 108 107 106 105 105 104 103 102 
102 100 100 99 98 97 95 95 94 92 91 90 89 88 86 85 
84 82 81 99 100 102 103 104 105 105 61 47 54 69 87 54 63 54 65 58 
53 41 55 62 70 100 96 84 74 75 109 125 125 125 125 125 
125 124 125 125 126 127 128 127 125 123 123 123 123 122 122 122 
122 121 121 120 120 120 120 119 119 118 118 118 116 116 116 115 
115 114 115 114 114 113 113 112 111 111 110 109 108 107 107 106 
105 104 104 102 101 100 99 98 96 95 94 93 92 91 90 88 
87 85 84 102 104 105 107 108 108 110 85 62 61 52 63 49 62 61 54 55 
61 74 64 61 67 91 71 75 89 64 78 127 129 129 128 129 
129 130 132 131 130 128 128 127 127 127 127 127 126 126 126 126 
125 125 125 124 124 123 123 122 122 122 122 121 121 120 119 119 
118 118 118 117 117 116 117 116 115 115 114 113 112 111 111 109 
109 107 107 106 105 104 103 102 100 99 98 97 96 94 93 92 
90 89 87 106 107 109 110 111 111 112 103 60 53 58 51 36 47 74 61 73 
81 73 77 59 70 77 71 66 61 61 61 93 102 111 135 136 
135 133 132 132 131 131 131 131 131 130 130 130 130 129 129 129 
128 128 128 128 128 127 126 126 126 125 125 124 125 124 123 123 
123 122 121 121 120 120 120 120 119 119 118 117 116 115 114 113 
112 112 110 109 108 108 106 105 104 103 101 100 99 97 96 95 
93 92 91 109 111 112 113 114 115 115 110 61 48 47 66 58 49 53 59 69 
78 62 76 77 68 64 55 77 79 78 70 84 74 70 124 136 
136 136 136 135 136 135 135 135 135 135 134 134 134 134 133 133 
133 132 131 131 131 131 130 130 129 129 128 128 128 127 127 127 
126 126 125 125 124 124 123 123 122 122 121 121 119 119 118 117 
116 115 114 113 112 112 110 109 107 106 105 103 103 101 100 98 
97 95 94 113 114 116 118 119 120 112 63 54 56 69 72 83 60 68 64 63 
58 57 63 98 79 73 71 99 85 99 81 96 109 74 114 140 
140 140 139 140 139 139 139 139 139 139 139 138 138 137 137 137 
137 136 136 135 135 135 135 134 134 133 133 132 132 132 131 131 
131 130 130 129 128 127 127 127 126 126 125 125 124 123 122 121 
121 119 118 117 117 115 114 113 111 110 109 107 106 105 103 102 
101 99 97 117 118 120 120 122 124 105 74 44 63 83 53 67 65 69 78 62 
59 61 54 79 72 114 90 117 102 111 94 95 115 98 104 144 
144 143 144 144 144 143 143 143 143 143 143 142 142 142 142 141 
141 140 140 139 139 139 138 138 138 138 137 136 136 136 135 135 
134 134 134 133 132 132 132 131 130 130 129 129 128 126 126 125 
125 124 122 121 120 119 118 116 115 114 113 111 110 109 107 106 
104 102 100 121 122 124 108 105 116 128 89 49 66 79 79 69 73 55 90 56 
52 64 76 114 99 112 87 103 111 97 140 116 115 118 140 148 
148 148 148 147 147 147 147 147 147 147 147 146 146 146 145 145 
145 144 144 144 143 143 142 142 141 141 141 140 140 140 139 139 
138 138 137 138 139 138 136 135 136 134 134 133 132 131 130 129 
129 127 126 125 124 123 122 120 119 118 116 115 113 112 111 109 
108 106 104 124 126 128 126 84 74 89 73 68 99 82 56 45 57 59 81 62 
50 67 107 95 91 88 104 91 82 90 131 129 107 129 146 152 
152 152 152 152 152 151 151 151 151 151 151 151 150 150 150 149 
149 149 148 148 148 147 147 146 146 145 145 145 144 144 143 144 
143 146 149 146 143 141 140 140 139 139 138 137 136 135 134 134 
133 132 131 129 128 127 126 124 123 121 121 119 117 116 114 113 
111 110 108 128 129 131 125 103 60 85 72 89 102 78 39 46 66 55 77 99 
44 56 108 95 99 81 85 85 112 107 94 91 132 157 156 156 
156 156 156 156 156 155 155 155 155 155 155 155 154 154 154 154 
153 153 153 152 152 151 151 151 150 149 149 149 148 148 147 147 
147 152 151 154 147 145 144 144 143 142 142 141 140 139 139 138 
137 136 135 133 132 131 130 128 127 125 124 123 121 120 118 117 
115 113 112 131 133 133 115 82 68 109 91 77 79 82 73 65 50 52 81 89 
56 39 108 58 73 96 65 78 88 105 90 89 142 161 161 161 
161 161 160 160 160 160 160 160 160 159 159 158 158 158 158 157 
157 157 156 156 156 155 155 154 154 154 153 152 152 152 152 152 
152 153 154 157 155 155 150 148 147 146 146 145 144 144 143 142 
141 140 138 137 136 135 134 132 131 129 128 127 125 123 122 120 
118 117 116 135 136 86 131 90 62 83 58 65 74 53 69 85 51 55 77 102 
70 40 70 68 96 78 57 63 81 100 139 139 162 165 165 165 
165 165 164 164 164 165 164 165 164 164 164 163 163 163 163 163 
162 162 162 161 161 160 159 159 159 158 157 157 157 156 155 155 
156 159 159 156 156 155 154 153 152 151 150 149 149 148 147 144 
145 144 143 141 140 139 138 136 135 134 133 131 129 127 126 124 
122 121 119 140 101 69 133 146 116 81 61 71 64 50 79 67 66 71 73 88 
57 41 53 82 78 112 93 73 74 85 162 168 160 169 169 166 
169 169 169 169 169 169 168 169 169 169 168 168 168 168 168 167 
167 168 167 167 168 168 165 164 163 162 162 161 160 160 159 159 
159 159 158 158 157 157 157 156 155 155 154 153 152 151 151 137 
149 148 147 145 144 143 142 140 139 138 136 135 133 131 130 128 
126 125 123 143 131 69 77 125 117 113 115 53 84 61 63 65 79 78 76 92 
54 61 52 76 93 97 114 122 95 100 116 144 100 160 151 113 
146 173 173 172 173 174 174 173 173 172 172 172 172 172 171 171 
171 171 169 170 171 174 173 168 167 166 166 166 165 165 164 164 
163 163 162 161 160 160 160 159 159 158 157 157 156 154 140 135 
152 151 150 149 148 147 146 144 143 142 140 138 137 135 134 133 
131 129 129 149 135 77 63 60 122 120 63 53 77 76 76 71 55 88 73 90 
68 54 71 58 87 108 84 84 103 82 71 73 57 101 144 99 
152 177 177 177 177 178 177 177 177 176 176 176 176 175 175 174 
173 175 175 176 175 175 173 172 172 171 171 170 170 169 168 168 
167 167 166 165 165 164 163 163 162 162 161 160 157 131 108 108 
117 138 137 153 152 151 150 149 147 146 144 143 141 140 138 136 
135 133 132 159 164 99 90 111 144 85 66 52 60 89 92 95 60 83 83 104 
62 73 91 68 118 98 109 70 62 69 66 50 56 66 100 126 
152 174 180 181 180 180 180 181 180 180 179 179 179 179 178 179 
179 179 179 179 178 178 178 176 176 175 175 174 174 173 172 172 
171 171 170 169 169 168 168 167 166 165 160 159 155 76 84 85 
77 93 94 149 156 155 153 152 151 150 148 147 145 144 143 140 
139 137 135 155 153 90 58 65 82 84 75 92 59 87 110 68 56 66 85 81 
50 64 90 90 91 69 69 69 60 56 69 63 56 80 93 103 
85 109 164 184 184 184 184 184 183 183 183 183 183 183 183 183 
182 182 182 182 182 181 180 180 179 179 179 178 178 177 176 176 
175 174 174 173 173 172 171 171 170 168 143 139 142 84 97 72 
100 94 82 145 158 158 157 156 155 153 152 150 150 148 147 145 
143 141 140 158 137 103 66 49 58 58 69 109 93 112 107 64 53 48 42 76 
53 40 71 75 119 75 51 54 67 79 71 79 83 94 83 71 
64 79 137 182 187 187 187 187 187 187 187 188 187 187 186 186 
186 186 185 185 185 184 184 183 183 183 182 182 181 180 180 179 
179 178 177 177 176 176 175 174 174 167 124 77 89 69 92 67 
72 80 80 88 163 162 161 160 159 158 156 155 153 152 150 149 
147 145 143 162 150 63 100 111 82 75 69 107 69 101 75 103 95 98 52 79 
53 51 44 73 113 61 35 61 76 68 91 90 85 105 72 62 
62 77 85 160 189 189 188 187 190 191 191 191 191 191 190 190 
190 190 189 189 189 188 188 188 187 187 186 186 185 185 184 183 
183 182 181 181 180 180 179 179 175 157 71 57 69 66 112 101 
61 85 85 101 159 166 165 164 162 161 160 159 157 156 154 152 
150 148 146 166 167 147 81 65 88 84 104 89 128 140 79 109 150 82 62 81 
46 55 32 77 66 62 44 62 75 69 86 105 99 90 66 75 
75 79 79 93 181 192 193 193 194 195 195 195 195 194 194 194 
194 193 193 193 192 192 192 191 191 190 190 189 189 188 188 187 
187 186 185 185 184 182 182 182 179 83 79 51 64 79 92 78 
67 76 81 93 135 170 168 164 166 165 164 162 161 160 158 156 
154 152 151 169 170 153 109 105 104 90 97 145 104 118 139 125 113 71 86 70 
59 51 61 95 87 61 57 72 91 99 99 91 70 78 80 92 
77 75 87 62 130 198 198 198 198 198 198 198 198 198 197 197 
197 197 197 196 196 196 195 195 194 194 193 193 192 191 191 191 
190 189 188 188 187 185 184 183 147 73 76 55 71 81 71 91 
66 67 83 81 102 144 132 153 170 169 167 166 164 163 161 160 
158 156 154 174 175 176 177 116 103 72 81 108 159 180 137 120 118 139 100 48 
60 45 87 106 83 89 92 78 97 99 108 73 75 78 82 97 
81 124 106 75 93 185 199 201 201 201 201 201 201 201 201 201 
201 200 200 200 199 199 199 198 198 198 197 197 196 195 195 194 
194 192 192 192 191 189 174 184 128 67 82 84 87 75 65 72 
71 73 83 77 81 117 120 125 172 172 171 169 168 166 165 163 
161 159 157 169 176 177 172 172 173 150 105 169 177 191 191 191 158 100 121 60 
37 49 111 91 89 157 162 95 96 104 112 72 83 98 67 78 
91 124 113 108 86 117 200 204 203 204 203 202 202 203 203 204 
204 204 203 203 203 202 202 202 201 201 200 200 199 199 198 197 
197 196 195 194 194 185 150 148 136 68 66 75 98 92 76 75 
66 70 83 92 80 90 84 100 163 175 174 173 171 170 168 167 
165 163 161 141 149 155 157 165 165 167 171 176 182 192 194 192 130 112 87 93 
55 77 171 67 118 150 165 112 91 103 95 96 78 89 93 103 
75 121 104 117 123 112 196 208 207 208 208 207 208 207 207 208 
207 207 207 206 206 206 205 206 205 205 204 204 202 202 201 200 
200 199 199 198 198 178 119 84 103 78 74 72 66 76 56 49 
57 62 80 70 85 88 66 80 98 177 177 175 174 173 171 170 
168 166 164 136 137 138 144 154 173 178 184 190 194 195 189 190 153 105 126 79 
102 88 147 76 134 200 202 167 117 100 81 89 103 85 76 78 
77 93 106 134 149 167 211 211 211 211 211 211 211 211 211 211 
211 211 211 210 210 209 209 209 208 207 207 206 206 205 204 204 
203 202 202 201 200 157 86 74 118 77 60 52 53 52 62 49 
51 57 72 69 75 79 69 75 117 156 180 179 177 175 174 173 
171 169 167 139 138 141 145 153 160 173 190 193 196 197 162 183 159 119 147 90 
89 98 146 84 129 136 161 181 113 95 94 91 71 70 78 93 
77 103 94 108 105 169 210 209 214 214 214 215 215 215 215 215 
215 214 214 214 213 213 212 211 211 210 209 209 208 208 207 207 
207 205 205 204 202 192 84 61 55 65 85 54 60 74 69 73 
75 57 65 68 69 91 84 82 97 158 183 181 180 179 177 176 
174 171 169 151 156 163 174 176 181 183 192 197 198 200 200 179 185 137 143 101 
80 98 100 150 181 211 202 191 153 84 64 85 104 64 71 77 
103 109 95 89 87 88 119 131 209 218 218 218 218 218 218 218 
218 218 217 217 216 216 215 215 214 213 213 212 212 211 211 210 
208 208 208 207 167 127 80 73 58 68 92 63 65 76 62 62 
73 62 58 59 69 89 78 87 98 154 185 183 182 181 179 178 
176 175 173 186 186 190 192 194 196 197 199 200 201 203 204 192 189 156 168 144 
60 82 79 181 206 208 210 212 191 65 41 66 67 64 84 94 
95 101 88 92 95 80 103 95 167 221 221 221 221 221 221 220 
220 220 220 220 220 219 219 219 218 217 217 216 215 215 214 205 
201 212 211 210 165 91 70 75 72 53 60 60 74 103 54 64 
108 68 64 59 85 81 84 95 96 125 187 186 185 183 183 181 
180 178 176 192 192 195 196 198 199 201 202 204 205 206 204 200 198 205 192 153 
75 55 128 182 204 213 210 211 186 62 72 60 74 68 97 96 
97 69 93 98 89 106 93 98 145 224 224 224 224 224 224 224 
224 224 223 223 223 222 222 221 221 219 216 219 218 217 217 180 
187 214 211 213 185 143 89 87 67 91 121 57 83 97 88 91 
98 98 95 91 90 94 73 57 71 146 191 190 188 187 186 184 
183 181 179 195 197 199 200 201 203 204 198 195 199 203 209 210 206 205 201 196 
112 93 149 198 210 215 211 211 201 86 92 67 75 68 100 111 
114 93 98 89 95 85 78 109 106 217 226 226 227 227 227 227 
227 226 226 226 226 225 223 156 184 124 137 204 221 220 217 149 
161 174 196 216 185 134 106 86 81 114 114 65 82 67 105 70 
98 82 97 88 73 74 101 75 84 137 193 192 191 189 187 186 
184 182 181 197 198 199 201 203 204 206 206 206 206 208 211 212 212 213 214 216 
119 105 193 207 218 219 220 220 221 129 98 117 92 127 100 100 
95 75 98 96 103 79 102 129 132 151 218 229 229 229 229 229 
229 229 229 228 228 226 142 91 107 109 110 173 223 217 209 103 
108 138 190 218 217 187 150 104 128 120 124 94 78 67 80 63 
73 50 60 115 70 72 100 82 96 154 190 193 191 190 188 186 
185 183 182 197 199 201 202 203 205 206 207 209 210 212 213 214 215 216 216 217 
148 98 211 218 220 221 221 222 223 183 173 117 105 142 82 99 
61 80 99 85 103 94 115 121 111 90 203 232 232 233 233 233 
233 233 232 232 232 214 99 98 107 110 94 143 218 217 173 112 
90 112 179 218 220 220 201 113 146 94 84 92 81 83 61 71 
51 78 103 116 105 80 69 91 98 116 154 191 193 191 189 187 
186 184 182 198 199 201 202 204 205 207 209 210 212 213 215 215 215 216 217 217 
160 93 217 221 221 222 222 223 223 225 214 172 134 116 87 84 
86 79 87 102 118 126 114 102 102 135 190 235 235 236 236 236 
236 235 235 235 234 175 126 125 104 93 120 106 175 206 104 99 
90 90 148 221 222 221 218 177 144 114 106 129 81 73 48 69 
77 98 95 93 85 89 86 105 114 93 116 175 193 191 189 187 
186 184 182 198 199 201 203 204 206 208 209 210 212 212 213 214 215 216 216 217 
169 99 219 221 222 223 224 224 225 226 209 206 185 156 114 102 
92 83 87 99 105 130 99 86 101 106 151 216 237 238 238 238 
238 237 236 236 228 111 92 109 134 126 113 115 117 203 88 89 
88 84 135 195 222 221 221 190 180 138 70 93 80 106 72 72 
56 57 75 135 79 99 82 90 95 89 161 194 193 190 189 187 
185 183 182 197 198 201 202 203 205 206 208 209 211 211 212 213 214 216 216 217 
169 102 219 222 222 223 224 224 225 226 226 227 224 194 79 111 
126 106 115 97 112 120 93 96 118 107 117 211 238 239 239 239 
239 238 238 237 219 85 86 96 108 108 104 132 109 178 86 68 
95 89 119 196 224 223 222 218 182 103 58 72 81 86 60 45 
60 58 74 69 101 129 81 80 72 92 149 194 193 190 188 186 
184 183 181 196 197 199 201 203 203 205 207 208 210 211 212 213 214 215 216 217 
159 106 219 222 222 223 223 224 225 226 227 227 229 228 111 88 
120 104 99 102 91 99 82 86 129 104 105 197 239 240 240 240 
240 239 239 237 148 75 79 98 116 110 93 107 117 130 88 47 
111 86 107 203 224 223 223 213 133 113 127 71 106 91 76 47 
85 101 101 97 97 132 95 115 115 187 195 194 192 189 187 185 
183 181 179 195 196 198 200 201 203 204 206 207 208 209 211 212 213 215 216 217 
144 109 206 220 221 222 223 223 224 224 225 226 227 223 167 91 
139 90 111 113 91 85 76 74 126 110 113 185 240 241 241 241 
241 240 239 191 100 73 82 72 104 82 97 116 119 94 57 74 
88 101 112 205 225 224 223 218 129 145 107 76 66 87 71 62 
96 134 161 112 102 107 100 158 189 197 194 192 189 187 185 183 
181 179 177 193 195 196 198 200 201 202 204 205 207 208 210 211 213 213 214 215 
135 105 210 219 219 220 221 222 222 224 224 225 227 227 224 103 
158 162 160 107 119 81 93 105 117 127 141 185 240 241 241 241 
241 240 239 135 97 78 75 73 92 117 116 126 128 125 73 77 
88 90 136 190 221 220 220 210 166 116 94 93 135 74 70 90 
120 114 128 106 96 118 89 149 192 190 192 189 186 184 182 180 
178 176 173 190 191 192 195 196 198 199 200 202 203 204 205 207 208 209 189 209 
144 105 210 216 217 218 219 220 221 221 222 223 224 225 225 138 
208 221 221 130 142 135 152 154 136 141 191 202 238 240 241 241 
240 239 238 134 99 82 79 93 110 115 120 106 118 177 88 112 
67 90 120 207 220 219 218 211 166 109 117 135 140 72 85 107 
104 89 93 105 109 105 115 122 139 109 182 184 182 179 177 175 
173 171 168 185 187 185 190 191 193 194 195 197 198 200 201 202 204 206 203 204 
120 109 208 212 213 214 214 216 217 217 219 220 221 222 223 136 
214 227 228 152 155 213 142 134 147 140 143 124 197 239 240 239 
239 237 225 106 95 78 68 97 96 135 119 112 141 204 110 94 
93 97 111 208 217 215 214 189 160 120 127 163 193 95 58 118 
129 87 82 87 110 96 118 112 171 161 182 179 169 170 154 150 
149 146 140 178 180 181 182 183 185 185 188 190 191 192 194 195 198 199 201 189 
129 119 205 208 208 209 209 211 212 213 214 215 216 218 219 137 
214 224 224 177 176 222 150 119 140 145 137 121 128 219 237 237 
236 234 174 98 93 115 85 82 124 117 110 92 138 216 182 104 
86 93 122 213 212 211 210 209 208 184 187 147 143 112 41 128 
123 100 74 82 90 89 116 142 153 138 115 85 74 81 67 65 
67 60 61 169 171 172 174 175 177 178 179 180 182 184 186 187 189 191 193 180 
108 109 150 195 201 202 202 204 205 205 206 208 209 211 212 117 
211 216 217 184 159 219 166 135 133 146 142 126 120 160 228 233 
232 210 122 108 98 107 98 89 128 115 131 116 180 215 214 150 
101 121 201 207 204 203 203 202 201 198 206 168 129 128 55 132 
101 87 94 96 88 91 83 79 78 74 71 68 67 66 64 71 
74 67 76 140 142 141 149 152 155 158 161 163 165 168 145 128 151 178 169 116 
72 108 107 175 189 192 193 195 196 197 198 199 201 202 203 115 
205 208 209 191 128 213 166 172 136 156 140 133 114 137 188 228 
221 139 99 91 105 94 96 136 113 160 205 185 208 207 205 186 
100 178 199 197 195 192 145 147 123 110 143 118 105 116 61 122 
103 96 91 104 92 90 84 82 79 77 75 72 72 73 71 70 
80 74 75 96 96 97 93 102 104 110 113 110 120 105 85 97 108 112 96 107 
78 112 102 118 111 103 144 156 159 164 173 178 184 190 193 110 
195 195 197 198 119 205 169 193 176 176 161 155 120 133 152 209 
166 127 124 136 112 138 168 165 142 196 213 208 203 199 197 197 
150 196 191 184 178 167 114 120 126 119 117 122 119 120 70 112 
116 115 111 115 107 112 109 104 99 93 93 90 89 90 87 87 
87 82 84 96 88 104 100 91 89 109 100 73 82 87 85 97 98 93 90 108 
75 112 109 121 111 100 108 136 149 146 143 143 145 146 160 125 
164 170 173 183 133 185 162 182 178 189 198 179 148 154 160 184 
143 142 164 193 163 163 190 172 146 176 166 158 153 147 144 143 
128 135 128 124 123 123 127 127 125 126 127 128 131 131 72 128 
131 133 133 131 129 127 119 119 117 112 115 112 106 108 106 107 
101 96 95 77 79 96 77 81 70 95 69 77 80 97 82 95 103 113 97 110 
65 128 119 125 118 120 111 103 103 96 104 103 112 111 101 127 
102 108 119 128 106 120 119 131 132 133 153 138 157 168 171 170 
171 149 124 125 123 91 112 102 104 104 119 135 131 139 134 141 
128 135 138 137 131 128 125 132 124 118 120 120 118 118 62 114 
103 108 105 101 103 98 91 96 93 91 86 91 95 90 92 89 
81 79 80 76 77 94 86 86 82 97 84 85 94 100 97 109 110 100 97 97 
57 122 114 93 97 105 108 107 112 107 118 121 108 108 116 126 
95 74 72 69 105 92 80 93 109 138 158 153 156 156 153 155 
147 152 142 106 100 120 106 84 87 52 83 87 82 83 80 96 
101 93 92 110 91 105 101 123 129 122 127 120 120 122 66 110 
112 110 106 105 113 102 107 101 100 104 88 100 99 89 96 95 
91 92 95 40 59 76 70 71 66 71 57 69 75 92 100 89 112 102 121 119 
61 111 78 73 87 81 96 75 89 91 98 116 115 94 76 108 
59 55 74 73 123 136 150 161 139 138 131 146 148 141 142 146 
135 143 146 151 125 91 95 93 98 96 96 80 60 50 44 51 
68 47 47 57 51 64 74 91 102 94 109 118 109 100 63 119 
108 114 104 107 107 107 105 84 87 97 99 98 94 106 105 100 
95 102 93 81 75 69 81 72 55 56 57 64 70 77 89 86 95 111 108 107 
65 115 83 86 71 90 90 64 77 67 63 66 66 72 74 112 
100 127 154 167 162 146 120 122 122 128 145 138 134 138 134 145 
134 126 137 127 135 138 108 85 65 70 89 103 98 100 87 76 
68 44 61 48 41 46 43 71 61 84 76 69 75 71 51 86 
77 73 77 69 73 79 56 48 52 36 56 53 56 73 53 58 
64 53 65 93 68 73 61 88 78 57 60 69 82 81 91 96 80 103 103 88 
58 106 65 71 46 54 47 48 60 65 61 76 98 121 138 157 
169 150 139 135 141 127 115 118 128 141 126 125 130 131 128 133 
131 120 133 147 139 140 162 132 105 82 65 89 111 108 87 79 
90 103 104 91 57 38 30 34 40 56 49 43 44 41 47 54 
40 42 39 41 48 50 40 38 35 54 49 37 66 70 42 38 
36 55 39 80 75 75 59 77 82 71 67 71 61 72 86 65 45 76 48 66 
53 102 42 51 58 60 66 72 79 108 133 152 168 163 146 133 
121 119 119 126 109 115 119 133 134 115 117 121 124 121 117 136 
125 113 111 120 126 115 112 141 137 101 95 78 57 55 76 91 
84 94 98 89 90 93 76 72 52 40 33 27 25 24 43 37 
22 30 29 27 38 40 35 33 18 35 24 29 42 33 28 20 
37 37 41 75 54 69 66 61 76 65 47 52 50 35 32 34 35 37 44 49 
58 107 63 70 73 98 120 137 161 163 149 139 111 107 103 105 
98 104 105 111 115 117 134 124 110 111 117 119 120 115 116 121 
118 112 107 111 118 115 106 103 120 147 105 96 93 78 55 53 
76 88 82 86 104 83 90 80 79 88 82 76 60 42 40 39 
23 25 20 22 29 22 25 28 14 23 17 29 27 21 18 15 
25 24 17 34 41 39 59 26 37 27 26 33 39 39 39 52 51 55 54 65 
57 87 118 135 149 157 157 157 133 111 100 111 93 92 87 95 
101 107 111 114 121 134 114 106 108 112 114 115 114 110 112 132 
123 107 101 102 108 112 108 98 96 101 146 123 96 92 89 73 
50 40 59 84 116 119 110 84 86 80 86 74 70 79 78 73 
55 34 20 18 25 22 14 26 13 22 14 25 20 13 10 7 
18 16 13 18 20 21 22 27 33 45 50 50 48 51 54 60 68 78 100 122 
128 147 152 156 155 132 106 84 96 103 91 77 96 93 96 103 
105 109 110 134 130 108 102 104 107 109 110 111 107 104 106 136 
126 102 97 93 98 104 109 105 98 97 101 136 150 101 94 90 
86 72 50 42 59 73 101 108 112 112 84 76 74 82 71 64 
62 71 73 71 57 34 17 20 15 19 11 20 18 12 14 12 
18 15 12 36 38 54 38 50 42 41 41 44 44 56 83 112 138 145 144 144 
152 147 127 100 81 97 94 89 91 89 82 90 94 98 99 102 
106 112 150 122 104 100 102 106 105 107 108 108 102 102 105 106 
105 102 96 90 93 103 116 117 109 98 96 97 110 162 119 93 
87 84 81 68 47 36 40 57 86 109 110 93 101 91 61 68 
66 79 62 61 62 63 74 70 51 35 15 14 15 7 6 10 
14 8 10 53 48 51 47 46 47 54 67 95 124 136 135 139 136 151 145 111 
105 88 97 82 101 92 96 97 87 94 96 96 97 100 104 104 
129 144 109 103 99 101 105 104 105 107 109 104 97 101 104 108 
105 103 98 92 91 96 107 113 112 105 97 96 96 99 151 148 
98 92 85 81 77 70 49 33 35 60 78 102 110 99 79 73 
92 73 61 71 73 64 63 56 50 62 70 70 55 36 18 10 
13 5 11 34 34 35 50 74 109 133 126 121 131 137 138 138 120 82 90 53 
92 67 86 82 85 93 96 87 91 96 96 97 102 105 106 152 
130 105 102 99 99 105 104 104 106 109 107 101 97 102 105 110 
106 103 99 92 89 92 97 105 111 112 105 99 99 100 101 129 
173 119 102 95 85 79 77 70 54 44 48 55 74 90 102 91 
105 86 67 121 48 60 69 61 60 65 60 52 45 56 64 70 
55 35 24 80 105 123 122 115 124 133 127 129 127 113 78 62 82 47 95 73 
78 83 84 95 79 82 93 95 95 95 97 103 101 121 159 116 
103 99 98 99 104 103 103 104 108 107 103 96 97 102 104 109 
105 103 100 92 88 90 92 98 109 116 114 105 97 97 96 96 
102 164 149 96 96 91 85 82 80 74 56 38 33 41 66 77 
81 94 65 93 57 83 93 47 44 68 58 64 57 58 54 45 
35 43 54 113 113 121 128 118 131 121 110 70 52 82 68 69 85 73 73 85 
90 88 83 80 86 90 91 92 95 100 100 101 146 150 105 102 
98 98 98 103 104 102 104 106 108 106 100 95 97 103 104 109 
107 103 101 93 89 87 89 89 96 104 105 102 94 86 85 86 
88 91 133 180 117 103 103 96 91 85 82 77 65 42 31 37 
50 58 75 99 61 73 73 48 66 105 49 36 48 54 55 59 
41 55 48 105 125 126 119 104 61 42 92 69 53 80 78 65 60 63 73 83 
84 79 83 86 88 89 89 95 97 96 111 164 129 102 99 97 
97 98 101 102 102 103 101 106 106 103 97 92 98 103 101 125 
124 105 101 95 87 86 85 89 94 104 110 112 109 103 99 99 
97 96 95 109 176 140 89 90 86 84 83 80 77 75 66 46 
26 25 30 47 61 74 79 58 67 109 48 45 83 85 34 32 
40 48 52 105 87 60 68 76 45 56 71 69 60 61 65 71 57 67 71 79 
80 82 84 84 86 89 93 92 91 135 164 112 100 98 95 96 
96 99 102 100 101 101 104 106 103 99 94 93 99 100 100 148 
150 102 101 96 88 84 83 89 89 98 105 108 109 105 98 91 
89 90 88 90 93 151 181 109 97 98 94 85 78 76 75 71 
63 39 22 18 24 32 59 64 73 109 59 53 67 66 41 42 
46 103 33 66 41 46 55 59 47 55 53 52 55 46 48 61 64 70 76 79 
81 81 81 84 87 89 89 98 158 145 101 98 95 92 94 93 
98 100 97 98 98 100 103 103 100 96 92 93 98 97 98 149 
154 104 100 96 90 83 82 85 89 93 101 107 110 111 106 100 
94 94 97 94 93 93 122 185 136 86 87 84 78 75 73 73 
70 66 61 44 24 28 20 27 37 57 61 75 71 73 40 38 
44 122 35 67 42 45 60 51 40 52 44 55 59 47 65 64 72 77 77 76 
78 79 82 84 84 84 115 164 122 96 95 92 90 91 92 93 
99 96 96 99 97 102 102 101 97 94 91 93 97 95 98 150 
156 102 100 96 92 84 82 81 87 90 95 103 101 103 103 97 
93 88 88 90 91 91 92 103 165 168 103 91 97 91 84 79 
72 69 65 63 59 47 26 15 17 16 24 47 53 62 60 52 
38 126 39 69 50 48 55 56 51 57 54 56 56 62 68 71 75 73 74 75 
77 82 82 80 86 137 156 104 93 92 90 89 88 90 92 97 
96 94 98 96 97 100 101 99 95 92 92 93 96 94 98 151 
159 103 99 96 93 85 84 80 83 89 92 97 100 100 105 103 
104 97 88 87 86 83 80 77 79 128 184 129 81 88 90 87 
84 81 75 69 64 62 58 46 26 12 14 18 31 47 40 51 
52 118 53 50 45 46 48 51 56 58 64 59 63 70 71 70 71 71 73 75 
79 78 76 96 155 134 90 88 88 88 86 84 86 90 95 93 
91 94 94 94 99 99 98 94 90 88 90 92 95 93 99 153 
160 102 97 94 94 85 83 80 80 85 88 93 100 102 103 102 
99 96 89 84 86 88 89 89 89 85 103 172 159 89 71 76 
73 71 72 69 65 62 61 58 56 51 37 18 10 12 14 35 
41 56 37 47 49 49 44 60 50 60 64 66 65 66 67 68 67 70 74 75 
74 74 107 147 110 85 86 85 83 83 82 84 87 91 93 92 
91 93 92 93 97 97 94 90 87 86 89 89 96 86 97 154 
160 100 97 93 91 86 80 79 76 78 84 87 90 95 95 99 
100 100 95 90 88 85 86 86 83 81 82 86 146 182 125 76 
81 81 77 70 67 63 60 60 58 56 55 52 40 23 11 15 
21 26 28 50 36 35 47 53 56 60 61 61 63 63 63 65 68 72 69 68 
77 130 139 89 83 82 83 79 79 80 80 83 88 90 87 89 
91 90 91 93 94 94 90 87 86 86 86 87 86 86 96 124 
126 97 95 89 91 87 79 77 75 76 79 84 87 92 97 96 
97 95 89 86 81 74 74 77 78 80 81 82 78 115 178 154 
86 70 80 77 71 67 64 60 58 55 52 51 50 50 42 22 
7 4 15 34 39 47 51 56 57 56 58 60 57 60 64 67 67 66 67 91 
139 116 80 80 84 79 76 75 75 75 80 83 87 85 83 87 
86 86 90 92 92 89 87 85 83 85 82 85 90 84 92 93 
94 93 91 89 87 86 80 75 73 73 73 79 82 85 92 94 
94 97 96 92 88 82 79 75 72 74 69 69 68 68 80 149 
171 111 64 72 78 71 65 62 57 54 51 49 49 48 44 45 
37 20 8 44 47 51 53 53 52 54 54 55 59 61 65 64 63 67 109 132 
93 74 72 73 72 71 72 72 73 75 79 83 82 82 84 84 
83 87 89 90 89 87 82 80 79 80 80 83 82 81 87 89 
89 91 90 87 83 84 80 74 73 71 72 74 80 81 83 86 
87 87 87 88 83 83 78 77 74 74 75 74 73 71 69 68 
114 165 131 66 53 62 63 61 59 56 51 49 46 48 44 43 
39 39 32 45 48 47 47 49 51 52 53 56 59 61 59 59 75 123 113 74 
69 69 69 68 68 67 70 68 71 75 80 78 77 81 81 79 
83 86 88 85 86 82 79 76 73 77 80 82 80 79 88 87 
89 88 86 84 81 82 81 71 69 70 68 70 75 79 81 85 
90 88 87 90 85 80 76 72 66 67 63 68 73 69 69 69 
66 90 156 158 100 56 55 59 56 51 48 46 45 44 43 40 
39 38 35 44 44 45 44 46 49 51 55 56 55 56 58 82 127 103 70 67 
66 65 65 65 67 65 65 66 70 75 77 72 75 78 74 80 
81 86 87 84 81 80 77 70 71 73 74 76 75 78 85 84 
85 84 84 82 81 79 78 72 67 67 67 66 70 73 75 82 
86 86 83 84 84 83 78 76 70 67 66 65 62 64 61 61 
60 62 75 138 164 123 66 54 62 69 60 53 51 43 39 37 
37 35 36 41 42 43 42 45 50 50 51 52 53 59 96 123 86 63 61 63 
62 61 62 62 62 61 63 66 71 71 71 70 74 74 75 76 
81 82 82 79 78 77 74 71 73 76 76 76 74 73 82 81 
81 83 82 79 79 79 77 72 65 66 65 64 66 71 72 72 
73 76 74 72 75 76 77 72 72 68 65 63 61 63 63 62 
60 58 58 58 101 152 140 79 52 54 61 61 61 55 54 46 
39 35 34 37 39 42 44 48 48 47 47 50 69 112 107 69 58 57 58 56 
59 57 56 58 57 58 63 66 68 67 66 69 72 72 72 73 
78 77 77 75 75 73 67 65 70 71 70 76 73 69 76 79 
80 78 80 78 77 76 74 72 66 62 63 62 62 67 72 71 
75 78 77 76 75 71 70 65 64 63 58 59 58 58 57 60 
56 56 59 57 57 75 137 149 104 53 43 50 52 54 53 49 
47 43 38 35 37 42 43 43 43 45 48 80 111 89 56 53 53 53 56 54 
56 55 54 56 58 59 62 64 64 62 64 67 66 65 67 72 
76 73 72 73 71 70 67 65 66 69 70 72 69 69 75 75 
78 75 78 72 76 70 72 70 64 59 62 60 58 61 64 68 
69 71 73 72 71 70 71 70 68 63 61 59 53 49 48 49 
52 53 53 54 55 53 57 109 141 126 69 46 46 53 54 49 
46 43 38 36 38 38 38 39 41 51 93 99 67 51 49 50 50 51 52 51 
49 51 52 53 55 58 61 61 58 61 62 62 61 64 67 70 
71 71 69 68 68 67 63 65 62 67 67 69 62 66 75 72 
74 72 74 71 73 69 70 66 63 57 56 57 56 55 56 60 
62 65 67 70 69 69 68 66 66 65 62 61 57 53 50 50 
50 48 48 45 46 44 46 47 77 127 133 92 46 38 48 52 
47 46 46 34 36 34 37 40 62 98 85 53 47 46 47 47 48 50 47 46 
48 48 47 51 55 57 56 56 55 58 58 59 60 63 66 68 
66 67 64 65 62 61 63 62 63 66 67 68 61 66 72 70 
70 71 72 69 69 64 68 64 62 58 54 57 54 54 53 56 
58 56 57 57 58 60 62 62 64 62 58 56 55 52 47 48 
46 47 50 48 46 44 45 43 41 51 102 122 104 55 35 38 
45 45 42 30 31 33 39 75 96 66 44 43 43 43 44 44 46 44 43 45 
43 46 47 50 54 53 52 50 56 56 54 55 57 61 64 65 
64 63 63 61 59 58 57 59 64 65 65 65 58 64 67 67 
68 67 69 67 65 63 60 66 60 54 51 51 51 50 49 53 
56 57 56 60 60 58 55 55 53 52 50 52 50 50 47 46 
43 44 43 43 43 41 40 43 41 39 42 80 117 112 74 34 
30 33 34 28 29 46 79 85 53 38 38 41 39 41 40 40 42 39 41 40 
43 46 51 49 49 50 49 51 52 52 53 51 56 60 61 60 
60 60 59 57 54 55 59 61 59 60 64 58 56 65 65 64 
64 64 65 65 63 63 59 61 58 55 49 48 49 47 46 46 
48 50 49 51 53 57 55 57 58 58 55 51 46 44 39 42 
39 38 38 38 39 38 39 39 38 38 36 36 54 99 108 94 
48 30 30 28 55 79 67 42 36 36 36 37 37 37 40 38 37 38 39 39 
41 43 48 48 47 45 47 50 49 48 49 51 54 56 57 57 
55 55 56 53 53 54 55 55 55 57 61 56 52 61 62 63 
64 63 59 61 59 59 57 57 59 52 48 46 46 46 42 43 
43 47 48 47 48 46 48 46 47 49 53 50 48 46 43 42 
39 33 32 31 29 33 33 35 35 36 33 35 34 37 77 101 
100 65 30 67 77 51 32 34 32 33 38 34 34 33 35 34 34 39 36 38 
39 43 43 44 44 41 46 46 45 48 48 50 52 52 53 52 
51 53 50 50 49 47 50 52 56 55 58 54 47 57 59 60 
58 60 58 59 55 56 56 55 53 51 46 45 42 43 40 37 
38 41 44 46 48 47 49 48 47 42 41 40 38 39 38 38 
37 36 35 34 32 31 31 28 28 26 27 28 30 29 29 54 
91 95 80 59 40 28 30 28 30 31 32 30 31 30 31 31 32 32 35 37 
39 43 40 41 40 41 43 43 44 44 46 50 49 51 50 51 
48 50 47 46 46 45 47 48 50 53 53 55 45 53 54 56 
56 56 56 56 54 54 52 53 49 48 44 40 40 41 42 37 
39 39 39 40 41 42 45 48 46 46 45 45 44 40 35 33 
30 29 27 29 30 29 29 28 30 28 27 27 26 22 22 24 
33 72 86 28 26 27 26 28 29 28 28 29 28 28 30 31 31 31 33 36 
38 37 37 38 39 39 38 38 40 41 43 48 48 46 49 47 
46 47 45 44 42 44 44 41 51 51 50 49 45 51 54 54 
54 55 55 54 52 50 51 48 49 45 42 41 36 38 39 35 
35 35 37 39 38 35 37 37 37 37 40 41 41 41 38 35 
36 36 30 26 23 21 20 22 24 27 26 25 23 24 25 24 
21 23 50 22 23 23 24 25 26 25 27 27 25 27 27 28 30 31 34 33 
33 35 33 34 38 37 36 36 39 43 42 43 46 44 43 44 
44 44 43 43 43 40 42 45 46 46 47 43 43 49 49 52 
50 54 50 50 49 50 48 47 46 45 43 40 36 35 36 35 
33 34 34 38 35 38 36 40 39 38 36 35 32 33 32 33 
33 33 32 29 28 26 26 23 20 19 20 19 19 20 21 22 
22 20 18 